<svg fill="none" height="24" viewBox="0 0 24 24" width="24" xmlns="http://www.w3.org/2000/svg" xmlns:xlink="http://www.w3.org/1999/xlink"><clipPath id="clip0_1_3839"><path d="m0 0h24v24h-24z"/></clipPath><g clip-path="url(#clip0_1_3839)" clip-rule="evenodd" fill="rgb(0,0,0)" fill-rule="evenodd"><path d="m1 16c.55228 0 1 .4477 1 1v2c0 1.6477 1.35228 3 3 3h14c1.6477 0 3-1.3523 3-3v-2c0-.5523.4477-1 1-1s1 .4477 1 1v2c0 2.7523-2.2477 5-5 5h-14c-2.75228 0-5-2.2477-5-5v-2c0-.5523.447715-1 1-1z"/><path d="m12 0c.5523 0 1 .447715 1 1v16c0 .5523-.4477 1-1 1s-1-.4477-1-1v-16c0-.552285.4477-1 1-1z"/><path d="m6.29289 11.2929c.39053-.3905 1.02369-.3905 1.41422 0l4.29289 4.2929 4.2929-4.2929c.3905-.3905 1.0237-.3905 1.4142 0s.3905 1.0237 0 1.4142l-5 5c-.3905.3905-1.0237.3905-1.4142 0l-5.00001-5c-.39052-.3905-.39052-1.0237 0-1.4142z"/></g></svg>